<?xml version="1.0"?><svg width="640" height="480" xmlns="http://www.w3.org/2000/svg" xmlns:xlink="http://www.w3.org/1999/xlink">
 <title>Bubble Green</title>
 <defs>
  <linearGradient id="linearGradient6686" x1="0.577657" x2="0.567018" xlink:href="#linearGradient6506" y1="1.14599" y2="0.154184"/>
  <linearGradient id="linearGradient6652">
   <stop id="stop6654" offset="0" stop-color="#da4615"/>
   <stop id="stop6656" offset="1" stop-color="#ffc06d"/>
  </linearGradient>
  <linearGradient id="linearGradient6684" x1="0.419562" x2="0.408924" xlink:href="#linearGradient6652" y1="0.045983" y2="1"/>
  <linearGradient id="linearGradient6682" x1="0.533335" x2="0.609526" xlink:href="#linearGradient5756" y1="0.057144" y2="0.847627"/>
  <linearGradient id="linearGradient6680" x1="0.495689" x2="0.500001" xlink:href="#linearGradient5742" y1="0.018268" y2="1"/>
  <linearGradient id="linearGradient6506">
   <stop id="stop6508" offset="0" stop-opacity="0" stop-color="#ffffff"/>
   <stop id="stop6510" offset="1" stop-opacity="0.87451" stop-color="#ffffff"/>
  </linearGradient>
  <linearGradient gradientUnits="userSpaceOnUse" id="linearGradient7498" x1="23.402565" x2="23.389874" xlink:href="#linearGradient6506" y1="44.066776" y2="42.883698"/>
  <linearGradient id="linearGradient7464">
   <stop id="stop7466" offset="0" stop-color="#00039a"/>
   <stop id="stop7468" offset="1" stop-color="#afa5ff"/>
  </linearGradient>
  <linearGradient gradientUnits="userSpaceOnUse" id="linearGradient7496" x1="23.21398" x2="23.20129" xlink:href="#linearGradient7464" y1="42.754631" y2="43.892632"/>
  <linearGradient id="linearGradient5756">
   <stop id="stop5758" offset="0" stop-color="#828282"/>
   <stop id="stop5760" offset="1" stop-opacity="0.352941" stop-color="#929292"/>
  </linearGradient>
  <linearGradient gradientUnits="userSpaceOnUse" id="linearGradient9321" x1="22.93503" x2="23.662106" xlink:href="#linearGradient5756" y1="42.699776" y2="43.892632"/>
  <linearGradient id="linearGradient5742">
   <stop id="stop5744" offset="0" stop-color="#adadad"/>
   <stop id="stop5746" offset="1" stop-color="#f0f0f0"/>
  </linearGradient>
  <linearGradient gradientUnits="userSpaceOnUse" id="linearGradient7492" x1="23.193102" x2="23.200001" xlink:href="#linearGradient5742" y1="42.42923" y2="44"/>
  <linearGradient gradientUnits="userSpaceOnUse" id="linearGradient9527" x1="23.193102" x2="23.200001" xlink:href="#linearGradient5742" y1="42.42923" y2="44"/>
  <linearGradient gradientUnits="userSpaceOnUse" id="linearGradient9529" x1="22.93503" x2="23.662106" xlink:href="#linearGradient5756" y1="42.699776" y2="43.892632"/>
  <linearGradient gradientUnits="userSpaceOnUse" id="linearGradient9531" x1="23.21398" x2="23.20129" xlink:href="#linearGradient7464" y1="42.754631" y2="43.892632"/>
  <linearGradient gradientUnits="userSpaceOnUse" id="linearGradient9533" x1="23.402565" x2="23.389874" xlink:href="#linearGradient6506" y1="44.066776" y2="42.883698"/>
 </defs>
 <g>
  <title>Layer 1</title>
  <path d="m402.062103,213.499481c0,52.198944 -43.707672,94.562531 -97.562042,94.562531c-53.854324,0 -97.561935,-42.363586 -97.561935,-94.562531c0,-52.197113 43.707611,-94.561234 97.561935,-94.561234c53.85437,0 97.562042,42.36412 97.562042,94.561234z" id="path6662" stroke-miterlimit="4" stroke-linejoin="round" stroke-linecap="round" stroke-width="0.8" fill="#053f05"/>
  <path d="m61.388,109.975159c0,6.151917 -6.456192,11.144638 -14.411148,11.144638c-7.955017,0 -14.411148,-4.992722 -14.411148,-11.144638c0,-6.151672 6.456131,-11.144394 14.411148,-11.144394c7.954956,0 14.411148,4.992722 14.411148,11.144394z" id="path6664" stroke-miterlimit="4" stroke-linejoin="round" stroke-linecap="round" stroke-width="0.8" fill="url(#linearGradient6686)"/>
 </g>
</svg>